<svg width="32" height="32" xmlns="http://www.w3.org/2000/svg">
  <!-- Background -->
  <rect width="32" height="32" rx="6" fill="#1d4ed8"/>
  
  <!-- Letter G for GrowthLift -->
  <path d="M16,6 C10.5,6 6,10.5 6,16 C6,21.5 10.5,26 16,26 C21.5,26 26,21.5 26,16 L20,16 L20,18 L18,18 L18,14 L26,14 C25,9.5 21,6 16,6 Z M16,8 C19.5,8 22.5,10 23.5,13 L16,13 L16,19 L19,19 L19,17 L24,17 C24,20.5 20.5,24 16,24 C11.5,24 8,20.5 8,16 C8,11.5 11.5,8 16,8 Z" fill="white"/>
  
  <!-- Growth Arrow -->
  <polyline points="18,12 22,8 26,12" stroke="white" stroke-width="2" fill="none"/>
</svg>