<svg width="800" height="500" xmlns="http://www.w3.org/2000/svg">
  <!-- Background -->
  <rect width="800" height="500" fill="#f3f4f6"/>
  
  <!-- Paid Ads Elements -->
  <circle cx="400" cy="250" r="150" fill="#f5d0fe" opacity="0.7"/>
  
  <!-- Ad Banners -->
  <rect x="200" y="100" width="400" height="80" rx="10" fill="white" stroke="#a855f7" stroke-width="3"/>
  <rect x="220" y="120" width="100" height="40" rx="5" fill="#e9d5ff"/>
  <rect x="340" y="120" width="240" height="15" rx="3" fill="#d8b4fe"/>
  <rect x="340" y="145" width="180" height="15" rx="3" fill="#d8b4fe"/>
  
  <rect x="200" y="200" width="400" height="80" rx="10" fill="white" stroke="#a855f7" stroke-width="3"/>
  <rect x="220" y="220" width="100" height="40" rx="5" fill="#e9d5ff"/>
  <rect x="340" y="220" width="240" height="15" rx="3" fill="#d8b4fe"/>
  <rect x="340" y="245" width="180" height="15" rx="3" fill="#d8b4fe"/>
  
  <rect x="200" y="300" width="400" height="80" rx="10" fill="white" stroke="#a855f7" stroke-width="3"/>
  <rect x="220" y="320" width="100" height="40" rx="5" fill="#e9d5ff"/>
  <rect x="340" y="320" width="240" height="15" rx="3" fill="#d8b4fe"/>
  <rect x="340" y="345" width="180" height="15" rx="3" fill="#d8b4fe"/>
  
  <!-- Ad Labels -->
  <rect x="200" y="90" width="40" height="20" rx="10" fill="#a855f7"/>
  <text x="220" y="105" font-family="Arial" font-size="12" text-anchor="middle" fill="white">AD</text>
  
  <rect x="200" y="190" width="40" height="20" rx="10" fill="#a855f7"/>
  <text x="220" y="205" font-family="Arial" font-size="12" text-anchor="middle" fill="white">AD</text>
  
  <rect x="200" y="290" width="40" height="20" rx="10" fill="#a855f7"/>
  <text x="220" y="305" font-family="Arial" font-size="12" text-anchor="middle" fill="white">AD</text>
  
  <!-- Click Symbols -->
  <circle cx="650" cy="140" r="20" fill="#a855f7" opacity="0.8"/>
  <text x="650" y="145" font-family="Arial" font-size="15" text-anchor="middle" fill="white">→</text>
  
  <circle cx="650" cy="240" r="20" fill="#a855f7" opacity="0.8"/>
  <text x="650" y="245" font-family="Arial" font-size="15" text-anchor="middle" fill="white">→</text>
  
  <circle cx="650" cy="340" r="20" fill="#a855f7" opacity="0.8"/>
  <text x="650" y="345" font-family="Arial" font-size="15" text-anchor="middle" fill="white">→</text>
  
  <!-- Text Placeholder -->
  <text x="400" y="470" font-family="Arial" font-size="24" text-anchor="middle" fill="#6b21a8">
    Paid Advertising
  </text>
</svg>